<svg width="49" height="18" viewBox="0 0 49 18" fill="none" xmlns="http://www.w3.org/2000/svg">
<g clip-path="url(#clip0_10_28)">
<path d="M8.86239 16.7445H0V17.9978H8.86239V16.7445Z" fill="white"/>
<path d="M8.86239 14.3511H0V15.6044H8.86239V14.3511Z" fill="white"/>
<path d="M6.32976 11.96H2.52832V13.2133H6.32976V11.96Z" fill="white"/>
<path d="M6.32976 9.56873H2.52832V10.8221H6.32976V9.56873Z" fill="white"/>
<path d="M6.32976 7.17761H2.52832V8.43095H6.32976V7.17761Z" fill="white"/>
<path d="M6.32976 4.78235H2.52832V6.03568H6.32976V4.78235Z" fill="white"/>
<path d="M8.86239 2.39111H0V3.64445H8.86239V2.39111Z" fill="white"/>
<path d="M8.86239 0H0V1.25334H8.86239V0Z" fill="white"/>
<path d="M10.1268 17.9866L19.5672 17.9999C20.8313 17.9999 21.9736 17.5199 22.8269 16.7466H10.127L10.1268 17.9866Z" fill="white"/>
<path d="M10.1268 15.6043H23.757C23.9873 15.2176 24.1588 14.7954 24.2627 14.351H10.127L10.1268 15.6043Z" fill="white"/>
<path d="M16.4563 11.96H12.6594V13.2133H16.4563V11.96Z" fill="white"/>
<path d="M20.2578 11.96V13.2133H24.4023C24.4023 12.7822 24.3436 12.36 24.2308 11.96H20.2578Z" fill="white"/>
<path d="M22.6959 9.56873H12.6594V10.8221H23.7566C23.4676 10.342 23.1109 9.91984 22.6956 9.56873H22.6959Z" fill="white"/>
<path d="M12.6594 7.17761V8.43095H22.6959C23.1203 8.07983 23.477 7.6576 23.7569 7.17761H12.6594Z" fill="white"/>
<path d="M16.4563 4.78235H12.6594V6.03568H16.4563V4.78235Z" fill="white"/>
<path d="M20.2578 6.03556H24.2308C24.3436 5.63558 24.4023 5.21335 24.4023 4.78223H20.2578V6.03556Z" fill="white"/>
<path d="M23.757 2.39111H10.1268V3.64445H24.2625C24.1452 3.2 23.9736 2.77781 23.7569 2.39111H23.757Z" fill="white"/>
<path d="M19.5672 0H10.1268V1.25334H22.8226C21.9738 0.479985 20.8226 0 19.5675 0H19.5672Z" fill="white"/>
<path d="M25.3237 3.64445H33.8519L33.4139 2.39111H25.3237V3.64445Z" fill="white"/>
<path d="M25.3237 1.25334H33.0123L32.5743 0H25.3237V1.25334Z" fill="white"/>
<path d="M39.2469 18.0009V16.7477H45.5814V18.0009H39.2469Z" fill="white"/>
<path d="M39.2469 15.6043V14.3511H45.5814V15.6043H39.2469Z" fill="white"/>
<path d="M35.45 8.1908L35.0936 7.17761H31.6531H27.8516V8.43086H31.6531V7.27992L32.0551 8.43086H38.8454L39.247 7.27992V8.43086H43.0485V7.17761H39.247H35.8069L35.45 8.1908Z" fill="white"/>
<path d="M43.0484 4.78235H36.6465L36.2085 6.0356H43.0484V4.78235Z" fill="white"/>
<path d="M45.5814 1.25334V0H38.3308L37.8928 1.25334H45.5814Z" fill="white"/>
<path d="M35.0125 16.7467L35.45 17.9865L35.8881 16.7467H35.0125Z" fill="white"/>
<path d="M34.1633 14.3511L34.6104 15.6043H36.2901L36.7414 14.3511H34.1633Z" fill="white"/>
<path d="M33.31 11.96L33.7572 13.2132H37.1434L37.5901 11.96H33.31Z" fill="white"/>
<path d="M32.9084 10.822H37.9967L38.4302 9.56873H32.4704L32.9084 10.822Z" fill="white"/>
<path d="M27.8516 6.0356H34.6916L34.254 4.78235H27.8516V6.0356Z" fill="white"/>
<path d="M45.5814 2.39111H37.4861L37.0531 3.64445H45.5814V2.39111Z" fill="white"/>
<path d="M31.6581 16.7467H25.3237V18H31.6581V16.7467Z" fill="white"/>
<path d="M31.6581 14.3511H25.3237V15.6044H31.6581V14.3511Z" fill="white"/>
<path d="M31.6531 11.96H27.8516V13.2133H31.6531V11.96Z" fill="white"/>
<path d="M31.6531 9.56873H27.8516V10.8221H31.6531V9.56873Z" fill="white"/>
<path d="M43.0484 9.56873H39.2469V10.8221H43.0484V9.56873Z" fill="white"/>
<path d="M43.0484 11.96H39.2469V13.2133H43.0484V11.96Z" fill="white"/>
<path d="M47.9516 16.0256C47.6857 16.0256 47.4306 16.1296 47.2426 16.3148C47.0545 16.4999 46.9489 16.751 46.9489 17.0128C46.9489 17.2746 47.0545 17.5257 47.2426 17.7108C47.4306 17.896 47.6857 18 47.9516 18C48.2176 18 48.4727 17.896 48.6607 17.7108C48.8488 17.5257 48.9544 17.2746 48.9544 17.0128C48.9544 16.751 48.8488 16.4999 48.6607 16.3148C48.4727 16.1296 48.2176 16.0256 47.9516 16.0256ZM47.9516 16.2051C48.1692 16.2051 48.3779 16.2902 48.5318 16.4417C48.6857 16.5932 48.7721 16.7986 48.7721 17.0128C48.7721 17.227 48.6857 17.4324 48.5318 17.5839C48.3779 17.7354 48.1692 17.8205 47.9516 17.8205C47.734 17.8205 47.5254 17.7354 47.3715 17.5839C47.2176 17.4324 47.1312 17.227 47.1312 17.0128C47.1312 16.7986 47.2176 16.5932 47.3715 16.4417C47.5254 16.2902 47.734 16.2051 47.9516 16.2051ZM47.5256 16.5099V17.5157H47.7741V17.1688H47.9153L48.1051 17.5157H48.3777L48.1487 17.1306C48.261 17.0873 48.3339 16.9863 48.3339 16.8277C48.3339 16.6445 48.2173 16.5099 47.9883 16.5099H47.5256ZM47.7741 16.7024H47.9589C48.037 16.7024 48.0806 16.736 48.0806 16.8081V16.8805C48.0806 16.9525 48.037 16.9863 47.9589 16.9863H47.7741V16.7024Z" fill="white"/>
</g>
<defs>
<clipPath id="clip0_10_28">
<rect width="49" height="18" fill="white"/>
</clipPath>
</defs>
</svg>
