<svg width="142" height="8" viewBox="0 0 142 8" fill="none" xmlns="http://www.w3.org/2000/svg">
<path fill-rule="evenodd" clip-rule="evenodd" d="M25.3255 6.47749H5.60852C3.8433 6.47749 3.05839 5.68599 3.05839 3.98635V0.193254H0V3.98635C0 6.44139 2.13489 7.79357 4.17234 7.79357H25.3255V6.47749ZM57.1506 0.193254V6.47749H39.1259C37.3607 6.47749 36.5758 5.68599 36.5758 3.98635V0.193254H33.5164V3.98635C33.5164 6.44139 35.6513 7.79357 37.6898 7.79357H60.21V0.193254H57.1506ZM94.832 6.47749H74.0461C72.2809 6.47749 71.496 5.68599 71.496 3.98635C71.496 2.27353 72.2809 1.50934 74.0461 1.50934H94.832V0.193254H72.61C70.572 0.193254 68.4367 1.54009 68.4367 3.98635C68.4367 6.44139 70.5715 7.79357 72.61 7.79357H94.832V6.47749ZM137.827 0.193254C139.864 0.193254 142 1.54009 142 3.98635C142 6.44139 139.865 7.79357 137.827 7.79357H115.004V0.193254H137.827ZM138.941 3.98635C138.941 2.27353 138.156 1.50934 136.391 1.50934H118.063V6.47699H136.391C138.156 6.47699 138.941 5.68599 138.941 3.98635ZM103.427 8H106.405V0H103.427V8Z" fill="white"/>
</svg>
