<svg width="143" height="18" viewBox="0 0 143 18" fill="none" xmlns="http://www.w3.org/2000/svg">
<path d="M141.004 1.92193C141.148 1.92193 141.292 1.92193 141.374 1.77727C141.395 1.71527 141.415 1.65327 141.415 1.59128C141.415 1.46728 141.353 1.36395 141.251 1.30195C141.148 1.26062 141.045 1.26062 140.818 1.26062H140.715V1.90126H141.004V1.92193ZM140.818 0.909301C141.127 0.909301 141.271 0.9093 141.395 0.971298C141.806 1.09529 141.847 1.46728 141.847 1.59128C141.847 1.61194 141.847 1.6946 141.827 1.77727C141.806 1.85993 141.765 2.02526 141.539 2.16992C141.498 2.19059 141.498 2.19058 141.436 2.21125L141.95 3.16188H141.456L141.004 2.29391H140.715V3.16188H140.263V0.909301H140.818ZM141.004 4.09185C142.115 4.09185 143 3.18255 143 2.08726C143 0.971298 142.115 0.0826635 141.004 0.0826635C139.913 0.0826635 139.028 0.971298 139.028 2.08726C139.028 3.18255 139.913 4.09185 141.004 4.09185ZM139.439 2.08726C139.439 1.21929 140.139 0.495981 141.004 0.495981C141.889 0.495981 142.588 1.21929 142.588 2.08726C142.588 2.93456 141.868 3.65787 141.004 3.65787C140.16 3.65787 139.439 2.93456 139.439 2.08726ZM125.567 14.8381C122.933 14.8381 120.731 13.0609 120.052 10.6429H134.623L136.64 7.50172H120.031C120.69 5.08381 122.933 3.28588 125.547 3.28588H135.591L137.587 0.144661H125.321C120.402 0.144661 116.429 4.13318 116.429 9.05166C116.429 13.9701 120.402 17.9587 125.321 17.9587H135.858L137.855 14.8175H125.547L125.567 14.8381ZM83.8077 17.9793C78.9093 17.9793 74.9371 13.9908 74.9371 9.07233C74.9371 4.15385 78.9093 0.165327 83.8077 0.165327H96.0743L94.0573 3.30654H84.0135C80.844 3.30654 78.2713 5.88978 78.2713 9.07233C78.2713 12.2549 80.844 14.8381 84.0135 14.8381H96.3212L94.3043 17.9793H83.7666H83.8077ZM18.9761 14.8381C22.1457 14.8381 24.7389 12.2549 24.7389 9.07233C24.7389 5.88978 22.1662 3.30654 18.9761 3.30654H9.11759C5.94804 3.30654 3.37536 5.88978 3.37536 9.07233C3.37536 12.2549 5.94804 14.8381 9.11759 14.8381H18.9761ZM8.89119 17.9793C3.97222 17.9793 0 13.9908 0 9.07233C0 4.15385 3.97222 0.165327 8.89119 0.165327H19.2025C24.1009 0.165327 28.0731 4.15385 28.0731 9.07233C28.0731 13.9908 24.1009 17.9793 19.2025 17.9793H8.89119ZM44.8264 12.2135C48.1606 12.2135 50.8362 9.50631 50.8362 6.1791C50.8362 2.85189 48.1606 0.144661 44.8264 0.144661H29.8843V17.9793H33.3008V3.28588H44.6C46.1642 3.28588 47.4609 4.58783 47.4609 6.1791C47.4609 7.77038 46.1642 9.05166 44.6 9.05166H34.9679L45.1351 17.9793H50.0953L43.2417 12.2135H44.7853H44.8264ZM101.302 14.8381V0.165327H97.906V16.2847C97.906 16.7394 98.0707 17.1527 98.4 17.4834C98.7293 17.7933 99.1821 18 99.6555 18H115.236L117.253 14.8588H101.323L101.302 14.8381ZM59.5216 11.6969H68.6392L63.8231 3.90586L54.9731 18H50.9597L61.7032 1.09529C62.1766 0.413317 62.9587 0 63.8231 0C64.6464 0 65.4285 0.392653 65.9018 1.05396L76.6865 18H72.6526L70.7591 14.8588H61.5386L59.5216 11.7176V11.6969Z" fill="white"/>
</svg>
