<svg width="95" height="18" viewBox="0 0 95 18" fill="none" xmlns="http://www.w3.org/2000/svg">
<g clip-path="url(#clip0_10_71)">
<path d="M40.6801 0.214233C40.2692 0.214233 39.9196 0.35505 39.6436 0.63056C39.3676 0.912193 39.2266 1.25505 39.2266 1.66525C39.2266 2.07546 39.3676 2.39995 39.6436 2.67546C39.9196 2.95097 40.2692 3.09178 40.6801 3.09178C41.091 3.09178 41.416 2.95097 41.6982 2.68158C41.9864 2.39995 42.1336 2.06321 42.1336 1.66525C42.1336 1.27342 41.9864 0.90607 41.6982 0.63056C41.416 0.35505 41.0726 0.220356 40.6801 0.220356V0.214233Z" fill="white"/>
<path d="M39.4903 5.78566V17.6999H41.8454V5.06934L39.4903 5.78566Z" fill="white"/>
<path fill-rule="evenodd" clip-rule="evenodd" d="M22.686 4.7572C24.6362 4.7572 26.2615 5.45516 27.5249 6.82659C28.7821 8.19802 29.3464 9.9123 29.1992 11.9205L29.1808 12.1715H18.5155C18.6811 13.1817 19.135 14.0266 19.8709 14.6878C20.6743 15.4164 21.6679 15.7837 22.827 15.7837C23.7163 15.7837 24.5197 15.5633 25.2127 15.1286C25.9058 14.6939 26.4393 14.0939 26.8012 13.3409L26.9116 13.1082L28.96 13.9654L28.8373 14.2225C28.3038 15.3429 27.5004 16.2429 26.4455 16.9164C25.3967 17.596 24.1701 17.9388 22.8086 17.9388C20.9258 17.9388 19.3251 17.3021 18.0494 16.047C16.7676 14.7919 16.1237 13.2062 16.1237 11.345C16.1237 9.48986 16.7554 7.90414 18.0065 6.64904C19.2637 5.39394 20.8338 4.7572 22.686 4.7572ZM22.686 6.9123C21.6495 6.9123 20.7357 7.24292 19.969 7.90414C19.2821 8.4919 18.8222 9.24496 18.5891 10.1388H26.7644C26.5559 9.2572 26.1143 8.51026 25.4335 7.91026C24.673 7.24292 23.7163 6.9123 22.686 6.9123Z" fill="white"/>
<path d="M48.2912 0L45.9422 0.722449V4.99592H43.1946V7.17551H45.9422V13.2245C45.9422 14.7184 46.3163 15.851 47.0707 16.5918C47.8189 17.3265 48.9719 17.7 50.499 17.7H52.0016V15.5204H50.499C49.6956 15.5204 49.1191 15.3551 48.7879 15.0245C48.4567 14.6939 48.2912 14.1122 48.2912 13.298V7.17551H52.0016V4.99592H48.2912V0Z" fill="white"/>
<path fill-rule="evenodd" clip-rule="evenodd" d="M63.8383 6.64904C65.1201 7.90414 65.764 9.48373 65.764 11.345C65.764 13.2062 65.1201 14.7919 63.8383 16.047C62.5626 17.3021 60.9619 17.9388 59.0791 17.9388C57.2024 17.9388 55.5955 17.3021 54.3199 16.047C53.0442 14.7919 52.3941 13.2062 52.3941 11.345C52.3941 9.48373 53.0442 7.90414 54.3199 6.64904C55.5955 5.39394 57.2024 4.7572 59.0791 4.7572C60.9619 4.7572 62.5626 5.39394 63.8383 6.64904ZM59.0791 15.7164C60.3179 15.7164 61.3176 15.3123 62.1394 14.4735C62.9551 13.6531 63.366 12.6001 63.366 11.3511C63.366 10.1021 62.949 9.04904 62.1394 8.22863C61.3176 7.39598 60.3057 6.98577 59.0791 6.98577C57.8586 6.98577 56.8651 7.39598 56.031 8.23475C55.2153 9.06741 54.7982 10.096 54.7982 11.3511C54.7982 12.6001 55.203 13.6164 56.031 14.4613C56.8651 15.3001 57.8586 15.7103 59.0791 15.7103V15.7164Z" fill="white"/>
<path d="M73.8105 4.7572C72.6943 4.7572 71.7008 5.08169 70.8483 5.72455C70.3393 6.11639 69.9099 6.58781 69.5788 7.13883V4.99598H67.2237V17.7001H69.5788V10.4817C69.5788 9.45924 69.9161 8.63884 70.603 7.96537C71.296 7.28577 72.1607 6.96128 73.234 6.96128C74.2092 6.96128 75.0065 7.2919 75.6627 7.96537C76.3312 8.65108 76.6501 9.47149 76.6501 10.4817V17.7001H79.0052V10.2674C79.0052 8.70006 78.5145 7.37149 77.5455 6.33067C76.5704 5.28986 75.3131 4.7572 73.8105 4.7572Z" fill="white"/>
<path fill-rule="evenodd" clip-rule="evenodd" d="M91.7618 6.82659C93.0191 8.20414 93.5833 9.9123 93.4361 11.9205L93.4177 12.1715H82.7525C82.9181 13.1817 83.3719 14.0266 84.1017 14.6878C84.9051 15.4164 85.9048 15.7837 87.0639 15.7837C87.9532 15.7837 88.7567 15.5633 89.4497 15.1286C90.1427 14.6939 90.6763 14.0939 91.0381 13.347L91.1485 13.1082L93.1969 13.9715L93.0743 14.2286C92.5407 15.3429 91.7373 16.249 90.6824 16.9225C89.6337 17.596 88.4071 17.9388 87.0394 17.9388C85.1627 17.9388 83.5559 17.3021 82.2802 16.047C81.0046 14.7919 80.3606 13.2062 80.3606 11.3511C80.3606 9.48985 80.9923 7.91026 82.2434 6.65516C83.4945 5.40006 85.0707 4.7572 86.9229 4.7572C88.8732 4.7572 90.4984 5.45516 91.7618 6.82659ZM84.206 7.90414C83.5191 8.4919 83.053 9.24496 82.8261 10.1388H91.0013C90.7928 9.2572 90.3451 8.51026 89.6705 7.91026C88.9161 7.24292 87.9594 6.9123 86.9229 6.9123C85.8864 6.9123 84.9726 7.24292 84.206 7.90414Z" fill="white"/>
<path d="M14.1059 4.82446L7.04681 15.6918L8.50647 17.9387L17.0191 4.82446H14.1059Z" fill="white"/>
<path d="M8.30407 13.1204L2.91317 4.82446H0L5.38476 13.1204H8.30407Z" fill="white"/>
<path d="M37.7976 4.86117C36.5956 4.63464 35.51 4.81832 34.5839 5.39995C33.9706 5.77954 33.4616 6.36117 33.0568 7.12036V5.00811L30.7079 5.71832V17.7H33.0568V10.4816C33.0568 9.28158 33.4984 8.37546 34.4061 7.70811C35.3199 7.04077 36.3932 6.85709 37.6934 7.14485L38.0245 7.21832V4.89791L37.7976 4.85505V4.86117Z" fill="white"/>
<path d="M93.479 16.9653V16.8612H94.0739V16.9653H93.8286V17.5959H93.7243V16.9653H93.479ZM94.172 16.8612H94.2947L94.5584 17.4L94.816 16.8612H94.9387V17.5959H94.8344V17.0571L94.5952 17.5408H94.5216L94.2824 17.0571V17.5898H94.172V16.8612Z" fill="white"/>
</g>
<defs>
<clipPath id="clip0_10_71">
<rect width="95" height="18" fill="white"/>
</clipPath>
</defs>
</svg>
