<svg width="70" height="16" viewBox="0 0 70 16" fill="none" xmlns="http://www.w3.org/2000/svg">
<g clip-path="url(#clip0_10_99)">
<path d="M2.51508 0.878818C3.54441 0.226124 4.79277 1.31435e-05 5.99846 0.0410309C7.20415 0.0738451 8.44531 0.367122 9.42271 1.10031C10.2464 1.70481 10.8166 2.61284 11.0809 3.59163C11.2881 4.31559 11.3215 5.0734 11.3097 5.82197C10.1657 5.823 9.02167 5.82248 7.87769 5.82248C7.88746 5.23644 7.86329 4.62682 7.60519 4.08897C7.41906 3.68546 7.08075 3.35219 6.66532 3.18812C6.21543 3.00969 5.71311 2.97893 5.23854 3.05942C4.80717 3.13428 4.38402 3.39013 4.21178 3.80595C4.0272 4.25304 4.03543 4.80883 4.32541 5.21029C4.55884 5.52818 4.92594 5.71174 5.29099 5.83735C6.06376 6.09576 6.83756 6.35161 7.61033 6.609C8.46073 6.88997 9.3024 7.24375 10.0145 7.79544C10.6418 8.27534 11.1282 8.94342 11.3518 9.70276C11.6027 10.5523 11.6063 11.4645 11.4372 12.3299C11.2382 13.3308 10.6839 14.265 9.86488 14.8838C8.85355 15.6626 7.55531 15.9734 6.29615 16H5.77532C4.48223 15.9493 3.13772 15.6708 2.08988 14.872C1.34436 14.3152 0.816324 13.4984 0.554106 12.6119C0.391634 12.0854 0.322738 11.5357 0.293945 10.9871V10.2637C1.4441 10.2642 2.59478 10.2632 3.74493 10.2642C3.73979 10.7256 3.74956 11.1968 3.89866 11.6388C4.0344 12.0664 4.30844 12.4561 4.69303 12.6945C5.17016 12.9934 5.75321 13.0693 6.30644 13.037C6.73421 13.0088 7.18461 12.8796 7.48385 12.5571C7.83038 12.1756 7.87717 11.5968 7.71984 11.123C7.55171 10.6421 7.06378 10.3847 6.6103 10.2273C5.72545 9.93964 4.83288 9.67508 3.94699 9.39C3.09145 9.11518 2.25081 8.71526 1.60863 8.07436C1.0189 7.49498 0.655908 6.71308 0.522743 5.90298C0.370554 4.96111 0.414771 3.97258 0.744342 3.07122C1.06826 2.17037 1.70221 1.38693 2.51508 0.878818ZM25.291 1.14543C26.2309 0.404551 27.4396 0.075896 28.6232 0.0410309C29.8279 0.00719125 31.0757 0.19536 32.1302 0.806525C32.9138 1.25362 33.5477 1.94836 33.9277 2.7641C34.3832 3.71263 34.4907 4.78268 34.4593 5.82197C33.3164 5.82248 32.1734 5.823 31.0305 5.82197C31.0377 5.31027 31.0238 4.78576 30.8459 4.2997C30.7055 3.9008 30.4428 3.53677 30.0752 3.31784C29.6268 3.04712 29.0813 2.98508 28.5677 3.03328C28.1574 3.07532 27.7322 3.24247 27.488 3.58907C27.2191 3.97617 27.1748 4.49915 27.3301 4.93906C27.4957 5.38103 27.9265 5.65123 28.3533 5.80454C29.2654 6.11679 30.1837 6.41006 31.0958 6.72282C32.049 7.06583 32.9992 7.52472 33.6948 8.28047C34.248 8.8742 34.5709 9.65662 34.6629 10.457C34.7745 11.4342 34.6722 12.4556 34.2511 13.3528C33.8876 14.1368 33.265 14.791 32.5158 15.2202C31.631 15.7354 30.6037 15.9513 29.5893 16H28.9553C27.8921 15.9595 26.8093 15.776 25.8627 15.2689C25.0524 14.8443 24.3814 14.1609 23.9881 13.3354C23.5208 12.3858 23.4195 11.3081 23.4436 10.2642C24.5953 10.2637 25.7465 10.2632 26.8982 10.2642C26.8895 10.7846 26.909 11.3214 27.1142 11.8085C27.2756 12.21 27.5748 12.5576 27.9594 12.7606C28.4268 13.0098 28.9723 13.0703 29.4947 13.0339C29.9297 13.0011 30.3888 12.857 30.6762 12.512C30.9847 12.132 31.0217 11.5886 30.8772 11.1353C30.7256 10.6831 30.2844 10.4201 29.8597 10.2632C29.3687 10.0894 28.8669 9.94836 28.3713 9.7889C27.3687 9.46691 26.3188 9.21568 25.4339 8.62041C24.6889 8.13947 24.1043 7.40936 23.838 6.56183C23.5573 5.67123 23.5244 4.70783 23.6956 3.79262C23.892 2.75897 24.455 1.79249 25.291 1.14543ZM54.1349 0.264065C55.4784 0.263552 56.8219 0.261501 58.1653 0.26509C58.1633 2.02373 58.1653 3.78236 58.1648 5.541C58.1715 6.61771 58.1504 7.69597 58.1751 8.77115C59.5284 7.3991 60.9073 6.05167 62.2703 4.68937C63.7542 3.2117 65.2406 1.7366 66.7234 0.258425C67.7162 1.25105 68.7106 2.24266 69.706 3.23324C66.9347 5.99117 64.1634 8.74859 61.3901 11.5045C61.3048 11.5916 61.2153 11.6752 61.1238 11.7552C63.9809 11.7783 66.8401 11.7578 69.6983 11.7654C69.6978 13.1042 69.6962 14.4434 69.6988 15.7826C64.511 15.7847 59.3227 15.7842 54.1344 15.7826C54.1365 10.6098 54.1354 5.43692 54.1349 0.264065Z" fill="white"/>
<path d="M11.1822 0.330182C12.5626 0.329669 13.9431 0.329156 15.3231 0.330182C16.0666 1.75709 16.8095 3.18348 17.5535 4.60936C17.5623 4.6109 17.5792 4.61346 17.5875 4.615C18.3325 3.18707 19.077 1.75914 19.8204 0.330695C21.1438 0.328644 22.4673 0.330695 23.7907 0.329669C22.3737 2.79894 20.9449 5.26103 19.533 7.73337C21.0559 10.3882 22.567 13.0503 24.0848 15.7082C22.7033 15.7067 21.3217 15.7124 19.9407 15.7052C19.0888 14.1362 18.2312 12.5704 17.3772 11.003C16.5345 12.5699 15.6985 14.1409 14.8568 15.7082C13.5257 15.7082 12.195 15.7088 10.8639 15.7082C12.3801 13.0872 13.8994 10.4682 15.4152 7.8472C14.0048 5.34101 12.5925 2.83637 11.1822 0.330182ZM34.8609 0.330182C36.1427 0.329669 37.425 0.329156 38.7068 0.330695C39.2456 3.61827 39.7788 6.90738 40.3207 10.1944L40.3397 10.2201C40.3592 10.2155 40.3978 10.2057 40.4168 10.2011C40.9089 6.91097 41.3942 3.62032 41.8852 0.329669H45.4123C45.9023 3.62493 46.3908 6.91968 46.8807 10.2144L46.9728 10.2103C47.5173 6.91763 48.0499 3.62288 48.5903 0.330182C49.7908 0.330182 50.9909 0.329156 52.1914 0.330182C51.2289 5.45638 50.267 10.5826 49.3029 15.7082C47.8746 15.7088 46.4463 15.7088 45.018 15.7082C44.5352 12.4212 44.055 9.13362 43.5732 5.84604L43.4812 5.85015C42.9943 9.13567 42.5177 12.4222 42.0349 15.7082C40.6066 15.7088 39.1777 15.7083 37.7494 15.7088C36.7854 10.5826 35.8239 5.45638 34.8609 0.330182ZM51.067 14.1885C51.4233 14.0296 51.886 14.1588 52.0912 14.4946C52.3349 14.8674 52.2202 15.4314 51.8253 15.6529C51.4423 15.8913 50.8762 15.7477 50.6752 15.3391C50.4536 14.9356 50.6299 14.3629 51.067 14.1885ZM51.2166 14.2885C50.8212 14.3829 50.6243 14.8679 50.7888 15.2258C50.9204 15.5647 51.3554 15.7236 51.6804 15.5652C52.013 15.4222 52.1534 14.9951 52.0135 14.671C51.8973 14.3634 51.5287 14.1952 51.2166 14.2885Z" fill="white"/>
<path d="M51.0506 14.507C51.2464 14.5157 51.4485 14.4824 51.6403 14.5352C51.8537 14.5926 51.8655 14.9608 51.6326 14.9977C51.8022 15.0469 51.7704 15.2422 51.8033 15.3766C51.7251 15.373 51.6485 15.3715 51.5719 15.3689C51.5493 15.2869 51.5544 15.1961 51.5153 15.1207C51.4495 15.0628 51.3508 15.0956 51.2722 15.0864C51.2716 15.1812 51.2711 15.2761 51.2727 15.3709C51.1981 15.3715 51.1236 15.372 51.0506 15.372C51.05 15.0838 51.05 14.7952 51.0506 14.507ZM51.2727 14.6885C51.2716 14.7639 51.2716 14.8387 51.2722 14.9146C51.3724 14.9064 51.5688 14.9485 51.5714 14.7977C51.557 14.6536 51.3719 14.6983 51.2727 14.6885Z" fill="white"/>
</g>
<defs>
<clipPath id="clip0_10_99">
<rect width="70" height="16" fill="white"/>
</clipPath>
</defs>
</svg>
