<svg width="116" height="18" viewBox="0 0 116 18" fill="none" xmlns="http://www.w3.org/2000/svg">
<path d="M110.134 7.9058V10.3561H111.834V12.7872C111.839 13.0045 111.827 13.2387 111.79 13.4262C111.723 13.8797 111.298 14.6518 110.091 14.6518C108.892 14.6518 108.474 13.8797 108.402 13.4262C108.372 13.2387 108.359 13.0045 108.359 12.7872V5.10859C108.359 4.83698 108.377 4.5397 108.433 4.31469C108.516 3.90544 108.874 3.09837 110.082 3.09837C111.351 3.09837 111.667 3.94923 111.74 4.31469C111.788 4.55674 111.79 4.96275 111.79 4.96275V5.89515H115.967V5.34395C115.967 5.34395 115.986 4.76881 115.935 4.23206C115.621 1.0804 113.058 0.0832741 110.119 0.0832741C107.175 0.0832741 104.664 1.08967 104.298 4.23206C104.265 4.51942 104.214 5.03632 104.214 5.34395V12.4075C104.214 12.7152 104.224 12.9533 104.28 13.5155C104.553 16.5805 107.175 17.6669 110.107 17.6669C113.058 17.6669 115.662 16.5805 115.939 13.5155C115.988 12.9533 115.993 12.7152 116 12.4075V7.9058H110.134ZM81.3374 0.535238H77.1433V12.9643C77.1499 13.1809 77.1433 13.4243 77.1065 13.6027C77.019 14.0199 76.67 14.8229 75.5129 14.8229C74.3707 14.8229 74.0125 14.0199 73.9316 13.6027C73.8896 13.4243 73.8843 13.1809 73.8896 12.9643V0.535238H69.6969V12.5786C69.6916 12.889 69.7156 13.5233 69.7337 13.6894C70.0231 16.8277 72.4644 17.8466 75.5129 17.8466C78.5672 17.8466 81.0071 16.8277 81.3018 13.6894C81.325 13.5233 81.3555 12.889 81.3374 12.5786V0.535238ZM42.802 0.535238L40.7099 13.6683L38.619 0.535238H31.8538L31.495 17.3362H35.6396L35.7518 1.78304L38.6035 17.3362H42.8086L45.6628 1.78304L45.7755 17.3362H49.9305L49.5596 0.535238H42.802ZM17.7539 0.535238L14.6821 17.3362H19.1616L21.4765 1.78304L23.7358 17.3362H28.1842L25.1252 0.535238H17.7539ZM95.9947 14.062L92.0894 0.535238H85.9355V17.161H90.0065L89.7701 3.2015L93.9641 17.161H99.8661V0.535238H95.7686L95.9947 14.062ZM58.3392 4.90774C58.2655 4.57594 58.2868 4.22343 58.3249 4.03919C58.4436 3.50137 58.8002 2.91479 59.8279 2.91479C60.7857 2.91479 61.3472 3.5197 61.3472 4.42751V5.45484H65.4356V4.28383C65.4356 0.663815 62.2321 0.0951396 59.9128 0.0951396C56.9917 0.0951396 54.6062 1.07069 54.1705 3.79455C54.0553 4.53581 54.0268 5.1938 54.2101 6.03344C54.9205 9.42974 60.7565 10.415 61.6035 12.5629C61.753 12.9697 61.7102 13.4886 61.634 13.7943C61.5071 14.3532 61.1359 14.9154 60.0357 14.9154C59.0038 14.9154 58.3826 14.3144 58.3826 13.4085L58.3814 11.7961H53.9808V13.0778C53.9808 16.7917 56.8521 17.9122 59.9445 17.9122C62.9063 17.9122 65.3525 16.8868 65.745 14.1073C65.9321 12.6711 65.791 11.7357 65.7158 11.3834C65.0301 7.89997 58.81 6.85215 58.3392 4.90774ZM4.40781 4.86653C4.32753 4.52783 4.34627 4.17036 4.39099 3.98396C4.50427 3.44873 4.86307 2.85179 5.9088 2.85179C6.87874 2.85179 7.44983 3.46254 7.44983 4.37768V5.41752H11.5862V4.23724C11.5862 0.582484 8.33374 3.97426e-07 5.98908 3.97426e-07C3.04352 3.97426e-07 0.636684 0.990653 0.196328 3.73414C0.0758052 4.48727 0.0551435 5.14979 0.229327 5.99871C0.947353 9.43363 6.84105 10.4269 7.69855 12.6004C7.8591 13.0045 7.81055 13.5233 7.73091 13.8409C7.59485 14.4057 7.22072 14.9758 6.11131 14.9758C5.07537 14.9758 4.45572 14.3644 4.45572 13.4461L4.44997 11.8294H0V13.1141C0 16.8704 2.91192 18 6.02848 18C9.02473 18 11.4852 16.9656 11.8866 14.1539C12.0861 12.7046 11.9364 11.7614 11.8692 11.4037C11.1692 7.87754 4.87989 6.83317 4.40781 4.86653Z" fill="white"/>
</svg>
