<svg width="120" height="16" viewBox="0 0 120 16" fill="none" xmlns="http://www.w3.org/2000/svg">
<g clip-path="url(#clip0_10_104)">
<path d="M101.292 15.2868C101.558 15.2868 101.975 15.2302 102.183 15.1536V13.8589C101.918 13.9155 101.691 13.9346 101.482 13.9346C100.799 13.9346 100.477 13.5735 100.477 12.5067V0.872314H97.5574V2.16789H98.8847V12.5825C98.8847 14.354 99.5865 15.2868 101.292 15.2868ZM105.236 12.6024V6.58468H107.226V5.28993H105.236V2.77699H103.644V5.28993H102.127V6.58468H103.644V12.6781C103.644 14.4297 104.421 15.2868 106.26 15.2868C106.544 15.2868 106.999 15.2302 107.226 15.1536V13.8589C106.923 13.9155 106.658 13.9346 106.412 13.9346C105.615 13.9346 105.236 13.6492 105.236 12.6024ZM79.5655 6.33755C81.6509 6.33755 82.7313 7.82284 82.902 9.47955H76.0585C76.2482 7.67057 77.4611 6.33755 79.5655 6.33755ZM87.2814 10.2218C87.2814 7.97512 88.704 6.35668 90.7131 6.35668C92.7422 6.35668 94.1258 8.01256 94.1258 10.2218C94.1258 12.4302 92.7422 14.0877 90.7131 14.0877C88.704 14.0877 87.2814 12.4685 87.2814 10.2218ZM112.365 13.8589H111.037V9.44128C111.037 7.38516 112.08 6.35668 113.919 6.35668C115.568 6.35668 116.631 7.38516 116.631 9.44128V13.8589H115.303V15.1536H119.55V13.8589H118.223V9.44128C118.223 6.98492 116.763 5.00452 114.109 5.00452C112.725 5.00452 111.701 5.5379 111.037 6.39496V0.872314H108.118V2.16789H109.445V13.8589H108.118V15.1536H112.365V13.8589ZM63.5646 6.83264V2.20534H64.9863V0.872314H60.4933V2.20534H61.915V13.8206H60.4933V15.1536H64.9863V13.8206H63.5646V8.12739H70.6931V13.8206H69.2713V15.1536H73.7643V13.8206H72.3426V2.20534H73.7643V0.872314H69.2713V2.20534H70.6931V6.83264H63.5646ZM84.2673 12.5067H82.6749C82.1058 13.4969 81.0825 14.106 79.6227 14.106C77.404 14.106 76.2101 12.7539 76.0585 10.7552H84.4952V10.0504C84.4952 7.04233 82.5805 5.00452 79.5655 5.00452C76.5324 5.00452 74.428 7.15633 74.428 10.2218C74.428 13.3064 76.5324 15.4391 79.5655 15.4391C81.7835 15.4391 83.4902 14.3157 84.2673 12.5067ZM94.0694 15.1536H96.9891V13.8589H95.6618V6.58468H96.9891V5.28993H94.0694V6.75609C93.2351 5.67103 91.9832 5.00452 90.5043 5.00452C87.7181 5.00452 85.6518 7.25119 85.6518 10.2218C85.6518 13.1924 87.7181 15.4391 90.5043 15.4391C91.9832 15.4391 93.2351 14.7725 94.0694 13.6875V15.1536Z" fill="white"/>
<path d="M5.53037 0.491917C4.99184 0.491917 4.45413 0.698277 4.04236 1.11266L1.06471 4.10323C0.244482 4.92701 0.244482 6.26752 1.06802 7.0938L9.47158 15.5338L17.8751 7.0938C18.6979 6.26835 18.6962 4.92867 17.8738 4.10323L14.8986 1.11433C14.4869 0.699109 13.9492 0.492749 13.4115 0.492749C12.8713 0.492749 12.3319 0.700774 11.9185 1.11682L9.47191 3.57485L7.02118 1.1135C6.61024 0.699109 6.07055 0.491917 5.53037 0.491917ZM33.2302 0.872186H37.8757L40.2643 10.0885L42.8235 0.872186H47.2975L42.5203 15.1344H37.9892L33.2302 0.872186ZM34.1971 9.59342C33.951 13.3445 31.4862 15.5338 27.41 15.5338C22.8788 15.5338 20.1108 12.6397 20.1108 8.01327C20.1108 3.34768 22.8979 0.472778 27.3155 0.472778C31.429 0.472778 33.8557 2.56717 34.1217 6.26086H29.7795C29.6469 4.81384 28.8317 4.05247 27.3718 4.05247C25.5897 4.05247 24.6991 5.36636 24.6991 8.01327C24.6991 10.6028 25.6659 11.9541 27.5044 11.9541C28.8888 11.9541 29.7604 11.1162 29.8938 9.59342H34.1971ZM50.9379 10.6785C51.1658 11.7452 51.7722 12.1263 53.0233 12.1263C54.1227 12.1263 54.73 11.7261 54.73 11.097C54.73 10.2025 53.9148 10.1268 52.2271 9.68828C50.2552 9.17488 48.9851 8.73636 48.3977 8.31698C47.2975 7.53731 46.7672 6.43228 46.7672 5.02353C46.7672 2.26262 48.928 0.472778 52.701 0.472778C56.3605 0.472778 58.5213 2.09121 58.7682 4.96695H54.4641C54.3125 4.10989 53.725 3.70965 52.6256 3.70965C51.6587 3.70965 51.184 4.03333 51.184 4.68071C51.184 5.44291 51.9239 5.57605 53.2892 5.93718C55.0523 6.39483 56.455 6.68024 57.3456 7.28934C58.5975 8.12726 59.1659 9.15574 59.1659 10.6219C59.1659 13.7248 56.9479 15.5338 52.8336 15.5338C49.0233 15.5338 46.7854 13.7248 46.5013 10.6785H50.9379Z" fill="white"/>
</g>
<defs>
<clipPath id="clip0_10_104">
<rect width="120" height="16" fill="white"/>
</clipPath>
</defs>
</svg>
