<svg width="114" height="18" viewBox="0 0 114 18" fill="none" xmlns="http://www.w3.org/2000/svg">
<g clip-path="url(#clip0_10_20)">
<path d="M0.333374 0.737419H8.13611V6.07376H8.18692L14.1368 0.737419H22.8842L15.7074 7.28211L24.0109 16.2627H14.1368L8.18692 9.90771H8.13611V16.2627H0.333374V0.737419Z" fill="white"/>
<path d="M35.2843 13.5697C38.7548 13.5697 38.5256 9.6714 38.5256 8.38406C38.5256 7.09671 38.5641 3.52462 35.2843 3.52462C32.0032 3.52462 32.0424 7.09671 32.0424 8.38406C32.0424 9.6714 31.8112 13.5697 35.2843 13.5697ZM35.2843 0.305698C44.1438 0.305698 46.5537 2.17632 46.5537 8.54683C46.5537 14.918 44.1438 16.7882 35.2843 16.7882C26.4237 16.7882 24.0145 14.918 24.0145 8.54683C24.0145 2.17632 26.4237 0.305698 35.2843 0.305698Z" fill="white"/>
<path d="M63.3808 10.4325V16.3669H71.3913V0.843035H63.3808V6.1787H57.6336V0.843035H49.6215V16.3669H57.6336V10.4325H63.3808Z" fill="white"/>
<path d="M75.179 0.842896H83.3756V12.6719C83.3756 12.6719 89.9178 12.6909 90.7869 12.6909C91.6575 12.6909 92.1711 11.9053 92.1711 11.9053V16.3668H75.179V0.842896Z" fill="white"/>
<path d="M111.282 5.98226C109.587 4.6157 108.133 4.15636 106.571 4.13079C105.043 4.10411 103.648 4.63899 103.648 5.57499C103.648 6.31397 104.691 6.6201 108.339 7.38557C111.337 8.01725 113.333 9.55869 113.333 12.4286C113.333 15.668 107.981 17.4996 103.194 17.4996C99.833 17.4996 97.2532 16.8903 94.9443 15.8472V11.4994C96.3713 12.9984 99.5642 13.7944 102.01 13.7944C103.367 13.7944 104.033 13.5938 104.033 12.5069C104.033 11.8341 103.187 11.2207 100.625 10.7483C95.7721 9.85297 94.132 8.45398 94.132 6.06216C94.132 2.62703 98.374 0.582447 103.601 0.582447C106.419 0.582447 109.007 0.670114 111.282 1.73555V5.98226Z" fill="white"/>
<path d="M87.6085 7.1759L88.1698 6.17871C86.4805 5.33745 85.9822 3.19721 86.8402 1.97676C87.7629 0.663385 90.3249 0.100647 91.7084 2.13359C92.8866 3.86816 91.7593 5.33745 91.2476 5.75842C90.7361 6.17871 87.6085 7.1759 87.6085 7.1759Z" fill="white"/>
</g>
<defs>
<clipPath id="clip0_10_20">
<rect width="114" height="18" fill="white"/>
</clipPath>
</defs>
</svg>
