<svg width="58" height="18" viewBox="0 0 58 18" fill="none" xmlns="http://www.w3.org/2000/svg">
<g clip-path="url(#clip0_10_83)">
<path d="M19.1517 9.6559V3.58862H19.7292C19.955 3.58862 20.1715 3.67873 20.3311 3.83911C20.4907 3.9995 20.5804 4.21702 20.5804 4.44384V7.14195C21.5057 6.31196 22.2941 5.98021 23.3424 5.95877C25.3511 5.91714 27.1087 7.41946 27.2694 9.43515C27.4678 11.8444 25.724 13.657 23.4529 13.657C20.9608 13.657 19.1517 12.103 19.1517 9.6559ZM20.5578 10.1327C20.6984 11.3865 21.8911 12.4221 23.1478 12.4423C24.7799 12.4675 25.901 11.3954 25.901 9.80726C25.901 8.21918 24.8112 7.17096 23.2181 7.17096C21.517 7.17096 20.3645 8.41343 20.5578 10.1327Z" fill="white"/>
<path d="M29.6573 6.11141V7.19242C30.5561 6.18331 31.091 5.91968 32.143 5.91968C32.4496 5.92014 32.7556 5.94502 33.0582 5.9941V7.42956C32.7352 7.34007 32.4015 7.29509 32.0664 7.29585C31.3044 7.29585 30.6641 7.54813 30.1908 8.02115C29.779 8.43615 29.6573 8.76158 29.6573 9.40868V13.406H28.1783V6.11141H29.6573Z" fill="white"/>
<path d="M33.4085 8.52322C33.4851 7.81306 33.6219 7.42834 33.927 7.05749C34.5371 6.30066 35.6356 5.92224 37.1911 5.92224C38.4265 5.92224 39.3254 6.11523 39.9531 6.52897C40.4716 6.86954 40.685 7.37284 40.685 8.26085V11.5026C40.685 12.2128 40.8683 12.4651 41.3717 12.4499C41.4839 12.4459 41.5958 12.4358 41.7069 12.4196V13.3972C41.4567 13.4834 41.193 13.5236 40.9286 13.5158C39.9983 13.5158 39.5714 13.2345 39.2827 12.4209C38.3675 13.2648 37.4221 13.6205 36.065 13.6205C34.2509 13.6205 33.1373 12.7918 33.1373 11.4446C33.1334 11.0684 33.2397 10.6995 33.4431 10.3836C33.6465 10.0678 33.9379 9.81911 34.281 9.66856C34.8296 9.43142 35.1598 9.35826 36.7367 9.19428C38.0787 9.06057 38.3072 9.03156 38.6889 8.91299C39.1006 8.77928 39.2839 8.55854 39.2839 8.18769C39.2839 7.40311 38.6286 7.05245 37.2551 7.05245C35.957 7.05245 35.2891 7.30472 35.0205 7.97074C34.9563 8.13621 34.844 8.2784 34.6982 8.37876C34.5524 8.47912 34.3799 8.53299 34.2032 8.53331L33.4085 8.52322ZM39.2802 9.76947C38.3381 10.0449 37.3706 10.2237 36.3927 10.303C35.0657 10.4367 34.6539 10.6815 34.6539 11.3538C34.6539 12.0942 35.264 12.4789 36.468 12.4789C37.4598 12.4789 38.2068 12.2267 38.7403 11.7385C39.1672 11.3386 39.2739 11.0573 39.2739 10.3611L39.2802 9.76947Z" fill="white"/>
<path d="M45.285 13.4073H44.9083C44.7437 13.4077 44.5824 13.3617 44.4425 13.2745C44.3027 13.1873 44.19 13.0624 44.1174 12.9141L40.9135 6.11139H41.8024C42.0557 6.10942 42.3041 6.18146 42.5174 6.31874C42.7307 6.45601 42.8997 6.65261 43.0038 6.88462L45.1381 11.7813L47.3414 6.86822C47.4475 6.64007 47.6168 6.44741 47.8289 6.31322C48.0411 6.17903 48.2871 6.10897 48.5378 6.11139H49.345L46.0721 12.9229C45.9985 13.069 45.8859 13.1917 45.7469 13.2773C45.6079 13.3628 45.448 13.4078 45.285 13.4073Z" fill="white"/>
<path d="M50.3481 10.1807C50.5 11.5871 51.6036 12.46 53.2356 12.46C54.1621 12.46 54.8526 12.1838 55.2883 11.63C55.4119 11.4729 55.5693 11.3459 55.7486 11.2585C55.928 11.1712 56.1247 11.1257 56.324 11.1255H57.184C56.4307 12.7842 55.0949 13.5978 53.0975 13.5978C50.5967 13.5978 48.9194 12.0728 48.9194 9.79344C48.9194 7.51411 50.6431 5.91467 53.1289 5.91467C54.928 5.91467 56.3767 6.72827 56.9567 8.09057C57.2154 8.71243 57.3233 9.27501 57.3233 10.1769L50.3481 10.1807ZM55.8068 9.05553C55.4716 7.76765 54.4798 7.03731 53.1076 7.03731C51.7354 7.03731 50.7436 7.7626 50.3933 9.05553H55.8068Z" fill="white"/>
<path d="M10.3506 0.0146484L11.9463 1.75195L12.2393 1.64941C12.5406 1.54355 12.8658 1.52619 13.1768 1.59863C13.4879 1.67121 13.7729 1.83098 13.9971 2.05957L15.041 3.12109C15.0829 3.16347 15.1113 3.21764 15.1221 3.27637C15.1327 3.33499 15.1256 3.39574 15.1016 3.4502L14.7178 4.31543L15.2695 5.82227L14.9043 7.18359L13.293 13.377C13.1066 14.0898 12.6771 14.7145 12.0801 15.1426C12.0801 15.1426 10.3545 16.3731 8.17383 17.8086C8.02043 17.9315 7.83 17.998 7.63379 17.998C7.43739 17.998 7.24626 17.9317 7.09277 17.8086C5.15191 16.5422 3.18457 15.1484 3.18457 15.1484C2.58689 14.7205 2.15741 14.095 1.9707 13.3818L0.350586 7.19141L-0.00488281 5.83301L0.544922 4.32617L0.144531 3.42871C0.125227 3.3853 0.119457 3.33682 0.12793 3.29004C0.136444 3.24321 0.15901 3.1998 0.192383 3.16602L1.25586 2.08496C1.48096 1.85424 1.76689 1.69239 2.08008 1.61914C2.39331 1.54593 2.72102 1.56371 3.02441 1.6709L3.30762 1.77246L4.90234 0.0214844L7.62695 0H7.64453L10.3506 0.0146484ZM7.56738 11.041C7.45854 11.0718 7.35222 11.1108 7.24902 11.1572L6.76562 11.3584C6.61252 11.4227 6.36663 11.5382 6.21973 11.6113L5.33008 12.0762C5.29802 12.0867 5.26977 12.1071 5.24902 12.1338C5.22834 12.1605 5.21623 12.1928 5.21387 12.2266C5.21157 12.2605 5.21932 12.2948 5.23633 12.3242C5.25334 12.3536 5.27913 12.3768 5.30957 12.3916L6.08105 12.9395C6.21655 13.0353 6.43009 13.2039 6.55566 13.3174L6.77344 13.5059C6.89897 13.6143 7.10335 13.7944 7.22754 13.9053L7.43359 14.0889C7.49716 14.1419 7.5775 14.1709 7.66016 14.1709C7.74284 14.1709 7.82316 14.142 7.88672 14.0889L8.10254 13.8994L8.55664 13.501L8.77539 13.3086C8.90095 13.1989 9.11347 13.0303 9.24902 12.9307L10.0205 12.375C10.051 12.3603 10.0768 12.3371 10.0938 12.3076C10.1107 12.2781 10.1188 12.2439 10.1162 12.21C10.1136 12.1761 10.1002 12.1437 10.0791 12.1172C10.0579 12.0908 10.0294 12.0714 9.99707 12.0615L9.10938 11.6084C8.96122 11.5327 8.71494 11.4195 8.56055 11.3564L8.0791 11.1572C7.97578 11.1108 7.86874 11.0718 7.75977 11.041H7.56738ZM7.39941 2.75586C7.23746 2.79371 6.97652 2.86724 6.81836 2.91895L6.00586 3.18359C5.86447 3.23312 5.715 3.2551 5.56543 3.24805L5.11426 3.16211L4.08496 2.96387C3.9219 2.93236 3.78739 2.90792 3.78613 2.90918H3.77246C3.70102 2.98285 3.63454 3.06117 3.57324 3.14355L2.90137 3.99023C2.79852 4.11629 2.63683 4.34011 2.54395 4.47754L2.04102 5.21875C1.95444 5.34624 1.87492 5.47848 1.80371 5.61523C1.76069 5.76797 1.73831 5.92624 1.73633 6.08496L1.76172 6.16602C1.77379 6.21773 1.78882 6.26871 1.80762 6.31836C1.91178 6.44446 2.08985 6.654 2.2041 6.77637L3.96191 8.65332C4.02026 8.72176 4.05952 8.80483 4.0752 8.89355C4.09075 8.98199 4.0829 9.07305 4.05176 9.15723L3.76367 9.84277C3.69839 10.0241 3.69367 10.2219 3.75 10.4062L3.80762 10.5654C3.90197 10.8235 4.06421 11.0509 4.27637 11.2246L4.55176 11.4512C4.62351 11.5032 4.70806 11.5353 4.7959 11.5459C4.88364 11.5564 4.97283 11.5451 5.05469 11.5117L6.03613 11.041C6.21621 10.9504 6.38483 10.8383 6.53809 10.707L7.32422 9.99414C7.35552 9.96575 7.38062 9.93098 7.39844 9.89258C7.41623 9.85423 7.4262 9.81279 7.42773 9.77051C7.42925 9.72821 7.42221 9.68604 7.40723 9.64648C7.39224 9.60698 7.3699 9.57058 7.34082 9.54004L5.56641 8.33887C5.49943 8.29103 5.45147 8.22075 5.43164 8.14062C5.41183 8.0603 5.42185 7.97523 5.45898 7.90137L6.14648 6.60254C6.18559 6.52304 6.20901 6.43614 6.21484 6.34766C6.22066 6.25913 6.20904 6.16995 6.18066 6.08594C6.09522 5.92575 5.95706 5.80024 5.79004 5.73047L3.63281 4.91211C3.47758 4.8529 3.48644 4.78556 3.65039 4.77539L4.91797 4.64941C5.11642 4.63678 5.3157 4.6544 5.50879 4.70215L6.61133 5.01172C6.68949 5.03545 6.75644 5.08673 6.7998 5.15625C6.84314 5.22574 6.86046 5.30867 6.84766 5.38965L6.41406 7.7666C6.38517 7.89799 6.37782 8.03325 6.39258 8.16699C6.41015 8.22375 6.55875 8.29362 6.7207 8.33398L7.3916 8.47754C7.58665 8.51356 7.78737 8.51356 7.98242 8.47754L8.58594 8.33984C8.74786 8.30326 8.89523 8.22668 8.91406 8.16992C8.92849 8.03591 8.92003 7.90007 8.89062 7.76855L8.45508 5.39258C8.4422 5.31158 8.45964 5.22872 8.50293 5.15918C8.54633 5.08959 8.61315 5.03737 8.69141 5.01367L9.79395 4.7041C9.98708 4.65633 10.1863 4.63771 10.3848 4.65039L11.6514 4.76953C11.817 4.78466 11.8249 4.84603 11.6709 4.90527L9.51465 5.72656C9.34785 5.79631 9.21041 5.92208 9.125 6.08203C9.06782 6.25172 9.07932 6.43797 9.1582 6.59863L9.84766 7.89746C9.88479 7.97132 9.89481 8.0564 9.875 8.13672C9.85517 8.217 9.8064 8.28709 9.73926 8.33496L7.9668 9.53906C7.93789 9.56945 7.91535 9.60528 7.90039 9.64453C7.88537 9.68413 7.87836 9.72718 7.87988 9.76953C7.88146 9.81173 7.89142 9.85332 7.90918 9.8916C7.927 9.92992 7.95215 9.96482 7.9834 9.99316L8.77051 10.7051C8.92384 10.8359 9.09243 10.9479 9.27246 11.0381L10.2549 11.5078C10.3368 11.541 10.426 11.5528 10.5137 11.542C10.6014 11.5312 10.6853 11.4984 10.7568 11.4463L11.0332 11.2188C11.2455 11.0448 11.4069 10.8161 11.501 10.5576L11.5586 10.3984C11.6149 10.2141 11.6103 10.0163 11.5449 9.83496L11.2559 9.15039C11.2245 9.066 11.2168 8.97443 11.2324 8.88574C11.2481 8.79701 11.2874 8.71395 11.3457 8.64551L13.1035 6.76562C13.2176 6.63961 13.3939 6.43837 13.498 6.30859C13.5193 6.26023 13.538 6.20994 13.5527 6.15918L13.5771 6.07812C13.5786 5.97035 13.5724 5.86261 13.5576 5.75586C13.4829 5.56479 13.387 5.38226 13.2715 5.21289L12.7695 4.47266C12.6766 4.3339 12.5178 4.1143 12.4111 3.98438L11.7383 3.13867C11.6769 3.05618 11.6106 2.97707 11.5391 2.90332H11.5254C11.5254 2.90332 11.3896 2.92749 11.2266 2.95898L10.1982 3.1582L9.74707 3.24512C9.59756 3.25216 9.44798 3.23113 9.30664 3.18164L8.49414 2.91797C8.33595 2.86625 8.07502 2.79118 7.91309 2.75586C7.74241 2.73763 7.57009 2.73763 7.39941 2.75586Z" fill="white"/>
<path d="M58 6.20229C58.0033 6.32554 57.9698 6.44696 57.904 6.551C57.8381 6.65504 57.7429 6.73697 57.6304 6.7863C57.518 6.83562 57.3934 6.85011 57.2727 6.82789C57.152 6.80567 57.0407 6.74776 56.9529 6.66158C56.8652 6.5754 56.805 6.46486 56.7802 6.34413C56.7553 6.22339 56.7669 6.09795 56.8134 5.98387C56.8599 5.86978 56.9393 5.77224 57.0413 5.70374C57.1433 5.63524 57.2634 5.59889 57.3861 5.59935C57.466 5.59784 57.5454 5.61231 57.6196 5.6419C57.6939 5.6715 57.7615 5.71563 57.8187 5.77174C57.8758 5.82784 57.9212 5.8948 57.9524 5.96872C57.9835 6.04263 57.9997 6.12203 58 6.20229ZM56.9216 6.20229C56.9196 6.26516 56.9302 6.3278 56.9529 6.38644C56.9755 6.44507 57.0098 6.4985 57.0535 6.54351C57.0973 6.58851 57.1496 6.62417 57.2074 6.64834C57.2652 6.67251 57.3273 6.68469 57.3899 6.68414C57.4514 6.68384 57.5122 6.67113 57.5688 6.64676C57.6253 6.62239 57.6764 6.58686 57.7191 6.54227C57.7617 6.49769 57.795 6.44495 57.8169 6.3872C57.8389 6.32945 57.849 6.26786 57.8469 6.20608C57.8501 6.143 57.8406 6.07991 57.8188 6.02066C57.797 5.9614 57.7635 5.90722 57.7202 5.86141C57.6769 5.8156 57.6248 5.77912 57.5671 5.75419C57.5093 5.72926 57.4471 5.7164 57.3842 5.7164C57.3214 5.7164 57.2592 5.72926 57.2014 5.75419C57.1436 5.77912 57.0915 5.8156 57.0482 5.86141C57.005 5.90722 56.9714 5.9614 56.9496 6.02066C56.9279 6.07991 56.9183 6.143 56.9216 6.20608V6.20229ZM57.2907 6.5189H57.1513V5.91596C57.2276 5.90224 57.3049 5.8959 57.3823 5.89704C57.4546 5.8913 57.5269 5.90663 57.5907 5.94118C57.6088 5.95685 57.6233 5.97621 57.6332 5.99797C57.6432 6.01973 57.6484 6.04337 57.6485 6.06732C57.6458 6.10127 57.632 6.13337 57.6093 6.15868C57.5866 6.18398 57.5563 6.20108 57.523 6.20734V6.21491C57.5526 6.22707 57.5785 6.24711 57.5977 6.27288C57.617 6.29865 57.6289 6.32919 57.6322 6.36123C57.6381 6.41343 57.653 6.46422 57.6761 6.51133H57.5255C57.5025 6.46519 57.4864 6.41588 57.4778 6.36501C57.4665 6.29942 57.4301 6.26915 57.3522 6.26915H57.2869L57.2907 6.5189ZM57.2907 6.17707H57.356C57.4326 6.17707 57.4953 6.15184 57.4953 6.08877C57.4953 6.0257 57.4552 5.99669 57.3698 5.99669C57.3441 5.99617 57.3183 5.99871 57.2932 6.00425L57.2907 6.17707Z" fill="white"/>
</g>
<defs>
<clipPath id="clip0_10_83">
<rect width="58" height="18" fill="white"/>
</clipPath>
</defs>
</svg>
